<svg width="22" height="19" viewBox="0 0 22 19" fill="none" xmlns="http://www.w3.org/2000/svg">
<path d="M20 0.893736C18.89 0.52105 17.67 0.361328 16.5 0.361328C14.55 0.361328 12.45 0.787254 11 1.95855C9.55 0.787254 7.45 0.361328 5.5 0.361328C3.55 0.361328 1.45 0.787254 0 1.95855V17.5581C0 17.8243 0.25 18.0905 0.5 18.0905C0.6 18.0905 0.65 18.0373 0.75 18.0373C2.1 17.3451 4.05 16.866 5.5 16.866C7.45 16.866 9.55 17.2919 11 18.4632C12.35 17.5581 14.8 16.866 16.5 16.866C18.15 16.866 19.85 17.1854 21.25 17.984C21.35 18.0373 21.4 18.0373 21.5 18.0373C21.75 18.0373 22 17.7711 22 17.5048V1.95855C21.4 1.47938 20.75 1.15994 20 0.893736ZM20 15.2687C18.9 14.8961 17.7 14.7363 16.5 14.7363C14.8 14.7363 12.35 15.4285 11 16.3336V4.08818C12.35 3.18309 14.8 2.49096 16.5 2.49096C17.7 2.49096 18.9 2.65068 20 3.02337V15.2687Z" fill="#A6ABB9"/>
<path d="M16.5 6.75054C17.38 6.75054 18.23 6.84638 19 7.02739V5.40888C18.21 5.24915 17.36 5.15332 16.5 5.15332C14.8 5.15332 13.26 5.46212 12 6.03712V7.80471C13.13 7.12323 14.7 6.75054 16.5 6.75054Z" fill="#A6ABB9"/>
<path d="M12 8.86915V10.6367C13.13 9.95526 14.7 9.58257 16.5 9.58257C17.38 9.58257 18.23 9.67841 19 9.85943V8.24091C18.21 8.08118 17.36 7.98535 16.5 7.98535C14.8 7.98535 13.26 8.3048 12 8.86915Z" fill="#A6ABB9"/>
<path d="M16.5 10.8291C14.8 10.8291 13.26 11.1379 12 11.7129V13.4805C13.13 12.799 14.7 12.4263 16.5 12.4263C17.38 12.4263 18.23 12.5222 19 12.7032V11.0847C18.21 10.9143 17.36 10.8291 16.5 10.8291Z" fill="#A6ABB9"/>
</svg>
